<mxfile host="app.diagrams.net" modified="2022-09-12T13:53:41.997Z" agent="5.0 (Windows NT 10.0; Win64; x64) AppleWebKit/537.36 (KHTML, like Gecko) Chrome/105.0.0.0 Safari/537.36" etag="nEAKEqgr0a5CjwwYMIyq" version="20.3.0" type="github">
  <diagram id="EWTWEXLdcnNlElP49PBn" name="第 1 页">
    <mxGraphModel dx="1338" dy="834" grid="1" gridSize="10" guides="1" tooltips="1" connect="1" arrows="1" fold="1" page="1" pageScale="1" pageWidth="1200" pageHeight="1920" math="0" shadow="0">
      <root>
        <mxCell id="0" />
        <mxCell id="1" parent="0" />
        <mxCell id="uIRm6ixdXtQdRyWg6cjz-1" value="" style="whiteSpace=wrap;html=1;aspect=fixed;fillColor=#dae8fc;strokeColor=#6c8ebf;" vertex="1" parent="1">
          <mxGeometry x="140" y="120" width="290" height="290" as="geometry" />
        </mxCell>
        <mxCell id="uIRm6ixdXtQdRyWg6cjz-2" value="" style="whiteSpace=wrap;html=1;aspect=fixed;fillColor=#dae8fc;strokeColor=#6c8ebf;" vertex="1" parent="1">
          <mxGeometry x="140" y="470" width="290" height="290" as="geometry" />
        </mxCell>
        <mxCell id="uIRm6ixdXtQdRyWg6cjz-3" value="Primary Shard 1" style="rounded=1;whiteSpace=wrap;html=1;fillColor=#f8cecc;strokeColor=#b85450;gradientColor=none;" vertex="1" parent="1">
          <mxGeometry x="220" y="150" width="120" height="60" as="geometry" />
        </mxCell>
        <mxCell id="uIRm6ixdXtQdRyWg6cjz-4" value="Primary Shard 2" style="rounded=1;whiteSpace=wrap;html=1;fillColor=#f8cecc;strokeColor=#b85450;gradientColor=none;" vertex="1" parent="1">
          <mxGeometry x="220" y="490" width="120" height="60" as="geometry" />
        </mxCell>
        <mxCell id="uIRm6ixdXtQdRyWg6cjz-7" value="Replica Shard 1.1" style="rounded=1;whiteSpace=wrap;html=1;fillColor=#d5e8d4;strokeColor=#82b366;" vertex="1" parent="1">
          <mxGeometry x="220" y="235" width="120" height="60" as="geometry" />
        </mxCell>
        <mxCell id="uIRm6ixdXtQdRyWg6cjz-8" value="Replica Shard 1.2" style="rounded=1;whiteSpace=wrap;html=1;fillColor=#d5e8d4;strokeColor=#82b366;" vertex="1" parent="1">
          <mxGeometry x="220" y="320" width="120" height="60" as="geometry" />
        </mxCell>
        <mxCell id="uIRm6ixdXtQdRyWg6cjz-9" value="Replica Shard 2.1" style="rounded=1;whiteSpace=wrap;html=1;fillColor=#d5e8d4;strokeColor=#82b366;" vertex="1" parent="1">
          <mxGeometry x="220" y="580" width="120" height="60" as="geometry" />
        </mxCell>
        <mxCell id="uIRm6ixdXtQdRyWg6cjz-10" value="Replica Shard 2.2" style="rounded=1;whiteSpace=wrap;html=1;fillColor=#d5e8d4;strokeColor=#82b366;" vertex="1" parent="1">
          <mxGeometry x="220" y="665" width="120" height="60" as="geometry" />
        </mxCell>
        <mxCell id="uIRm6ixdXtQdRyWg6cjz-12" value="Cluster Node 1" style="text;html=1;resizable=0;autosize=1;align=center;verticalAlign=middle;points=[];fillColor=none;strokeColor=none;rounded=0;fontStyle=1" vertex="1" parent="1">
          <mxGeometry x="435" y="115" width="110" height="30" as="geometry" />
        </mxCell>
        <mxCell id="uIRm6ixdXtQdRyWg6cjz-13" value="Cluster Node 2" style="text;html=1;resizable=0;autosize=1;align=center;verticalAlign=middle;points=[];fillColor=none;strokeColor=none;rounded=0;fontStyle=1" vertex="1" parent="1">
          <mxGeometry x="445" y="470" width="110" height="30" as="geometry" />
        </mxCell>
      </root>
    </mxGraphModel>
  </diagram>
</mxfile>
